<?xml version="1.0" encoding="utf-8"?>
<!-- Generator: Adobe Illustrator 26.5.0, SVG Export Plug-In . SVG Version: 6.00 Build 0)  -->
<svg version="1.1" id="Layer_1" xmlns="http://www.w3.org/2000/svg" xmlns:xlink="http://www.w3.org/1999/xlink" x="0px" y="0px"
	 viewBox="0 0 65 65" style="enable-background:new 0 0 65 65;" xml:space="preserve">
<style type="text/css">
	.st0{fill:#010101;}
</style>
<g>
	<path class="st0" d="M0,61.3V3.5h25.5c9.2,0,17.1,7.9,17.1,17.2c0,3.9-1.5,7.5-3.7,10.4c3.9,3.2,6.5,8,6.5,13.2
		c0,9.2-7.8,16.9-16.9,16.9H0V61.3z M22.5,26.1c2.8,0,5-2.2,5-5s-2.2-5-5-5h-7.3v10H22.5L22.5,26.1z M25.3,48.8c2.8,0,5-2.2,5-5
		s-2.4-5-5-5H15.2v10H25.3L25.3,48.8z"/>
	<path class="st0" d="M51.2,3.5c4.8,0,8.8,4,8.8,8.8s-3.9,8.8-8.8,8.8s-8.8-3.9-8.8-8.8S46.4,3.5,51.2,3.5z M51.2,8.7
		c-2,0-3.6,1.6-3.6,3.7c0,2,1.6,3.7,3.6,3.7s3.7-1.7,3.7-3.7C54.9,10.3,53.2,8.7,51.2,8.7z"/>
</g>
</svg>
