<?xml version="1.0" encoding="utf-8"?>
<!-- Generator: Adobe Illustrator 25.2.1, SVG Export Plug-In . SVG Version: 6.00 Build 0)  -->
<svg version="1.1" id="Layer_1" xmlns="http://www.w3.org/2000/svg" xmlns:xlink="http://www.w3.org/1999/xlink" x="0px" y="0px"
	 viewBox="0 0 100 100" style="enable-background:new 0 0 100 100;" xml:space="preserve">
<style type="text/css">
	.st0{fill:#010101;}
</style>
<g>
	<path class="st0" d="M0,96.28V0h42.49c15.4,0,28.5,13.22,28.5,28.63c0,6.55-2.44,12.58-6.16,17.33
		c6.55,5.26,10.91,13.35,10.91,22.08c0,15.28-12.97,28.24-28.24,28.24H0z M37.48,37.61c4.62,0,8.34-3.72,8.34-8.34
		s-3.72-8.34-8.34-8.34h-12.2v16.69H37.48z M42.23,75.48c4.62,0,8.34-3.72,8.34-8.34c0-4.62-3.98-8.34-8.34-8.34H25.29v16.69H42.23z
		"/>
	<path class="st0" d="M85.37,0.05c8.08,0,14.63,6.59,14.63,14.67s-6.56,14.59-14.63,14.59S70.77,22.8,70.77,14.72
		S77.29,0.05,85.37,0.05z M85.34,8.61c-3.34,0-6.07,2.73-6.07,6.1c0,3.34,2.73,6.1,6.07,6.1c3.37,0,6.1-2.76,6.1-6.1
		C91.44,11.34,88.72,8.61,85.34,8.61z"/>
</g>
</svg>
